<svg xmlns="http://www.w3.org/2000/svg" width="886.762" height="456.074" viewBox="0 0 886.76245 456.07419"><path d="M0 65.603h886.762" fill="#ff70cc" fill-rule="evenodd" stroke="#000" stroke-width="3"/><path fill="#fff" stroke="#000" stroke-width="2.438" d="M47.83 1.22H406.99v93H47.83z"/><path fill="#fff" stroke="#000" stroke-width="2" d="M174.768 52.545h105.285V84.44H174.768zM60.092 52.545h105.285V84.44H60.092zM291.567 52.545h105.285V84.44H291.567z"/><text style="line-height:125%" x="69.335" y="73.32" font-size="40" font-family="sans-serif" letter-spacing="0" word-spacing="0"><tspan x="69.335" y="73.32" font-size="17.5">prev hash</tspan></text><text y="74.512" x="184.63" style="line-height:125%" font-size="40" font-family="sans-serif" letter-spacing="0" word-spacing="0"><tspan y="74.512" x="184.63" font-size="17.5">state root</tspan></text><text style="line-height:125%" x="306.783" y="73.987" font-size="40" font-family="sans-serif" letter-spacing="0" word-spacing="0"><tspan x="306.783" y="73.987" font-size="17.5">H(txList)</tspan></text><text style="line-height:125%" x="59.098" y="26.736" font-size="40" font-family="sans-serif" letter-spacing="0" word-spacing="0"><tspan x="59.098" y="26.736" font-size="22.5">Block 153</tspan></text><text style="line-height:125%" x="104.24" y="19.405" font-size="40" font-family="sans-serif" letter-spacing="0" word-spacing="0"/><path d="M204.207 85.57L174.6 140.34" fill="none" stroke="#000" stroke-width="1.5"/><path stroke="#000" stroke-width="2" fill="none" d="M155.634 141.398h36.01v36.01h-36.01z"/><path fill="#fff" stroke="#000" stroke-width="2" d="M122.245 233.246h36.01v36.01h-36.01zM191.1 234.46h36.01v36.01H191.1z"/><path d="M169.954 177.417l-30.53 54.585M179.133 178.63l30.53 54.585" fill="none" stroke="#000"/><path fill="#fff" stroke="#000" stroke-width="2" d="M155.634 141.398h36.01v36.01h-36.01z"/><path d="M169.954 177.417l-30.53 54.585M179.133 178.63l30.53 54.585" fill="none" stroke="#000" stroke-width="1.5"/><path fill="#fff" stroke="#000" stroke-width="2" d="M49.236 232.64h36.01v36.01h-36.01zM15.847 324.488h36.01v36.01h-36.01zM84.702 325.7h36.01v36.01h-36.01z"/><path d="M63.556 268.66l-30.53 54.584M72.734 269.87l30.53 54.587M67.265 232.452l93.363-54.563" fill="none" stroke="#000" stroke-width="1.5"/><path fill="#fff" stroke="#000" stroke-width="2" d="M239.297 326.004h36.01v36.01h-36.01zM205.91 417.852h36.01v36.01h-36.01zM274.764 419.064h36.01v36.01h-36.01z"/><path d="M253.617 362.023l-30.53 54.585M262.796 363.235l30.53 54.585M311.095 268.178l-52.926 57.644M251.866 85.57l30.53 54.584" fill="none" stroke="#000" stroke-width="1.5"/><path fill="#fff" stroke="#000" stroke-width="2" d="M300.44 141.398h-36.01v36.01h36.01z"/><path fill="#fff" stroke="#000" stroke-width="2.172" d="M378.495 233.975H259.062v34.553h119.433z"/><path d="M286.12 177.417l32.653 55.798" fill="none" stroke="#000" stroke-width="1.5"/><path fill="#fff" stroke="#000" stroke-width="2" d="M385.433 325.63h-36.01v36.01h36.01z"/><path d="M337.724 269.802l30.53 54.585" fill="none" stroke="#000" stroke-width="1.5"/><text style="line-height:125%" x="269.918" y="257.506" font-size="40" font-family="sans-serif" letter-spacing="0" word-spacing="0"><tspan x="269.918" y="257.506" font-size="17.5">Account 14</tspan></text><text style="line-height:125%" x="356.38" y="350.014" font-size="40" font-family="sans-serif" letter-spacing="0" word-spacing="0"><tspan x="356.38" y="350.014" font-size="17.5">49</tspan></text><path fill="#fff" stroke="#000" stroke-width="2.338" d="M446.98 1.22h359.164v93H446.98z"/><path fill="#fff" stroke="#000" stroke-width="2" d="M573.92 52.545h105.285V84.44H573.92zM459.244 52.545H564.53V84.44H459.243zM690.72 52.545h105.284V84.44H690.72z"/><text y="73.32" x="468.487" style="line-height:125%" font-size="40" font-family="sans-serif" letter-spacing="0" word-spacing="0"><tspan y="73.32" x="468.487" font-size="17.5">prev hash</tspan></text><text style="line-height:125%" x="583.782" y="74.512" font-size="40" font-family="sans-serif" letter-spacing="0" word-spacing="0"><tspan x="583.782" y="74.512" font-size="17.5">state root</tspan></text><text y="73.987" x="705.935" style="line-height:125%" font-size="40" font-family="sans-serif" letter-spacing="0" word-spacing="0"><tspan y="73.987" x="705.935" font-size="17.5">H(txList)</tspan></text><text y="26.736" x="458.25" style="line-height:125%" font-size="40" font-family="sans-serif" letter-spacing="0" word-spacing="0"><tspan y="26.736" x="458.25" font-size="22.5">Block 154</tspan></text><path d="M605.76 84.46l-429.746 56.127M710.247 268.178L259.272 324.84M649.91 84.83l31.64 55.324" fill="none" stroke="#000" stroke-width="1.5"/><path fill="#fff" stroke="#000" stroke-width="2" d="M699.592 141.398h-36.01v36.01h36.01z"/><path fill="#fff" stroke="#000" stroke-width="2.172" d="M777.647 233.975H658.214v34.553h119.433z"/><path d="M685.272 177.417l32.652 55.798" fill="none" stroke="#000" stroke-width="1.5"/><path fill="#fff" stroke="#000" stroke-width="2" d="M784.585 325.63h-36.01v36.01h36.01z"/><path d="M736.876 269.802l30.53 54.585" fill="none" stroke="#000" stroke-width="1.5"/><text y="257.506" x="669.07" style="line-height:125%" font-size="40" font-family="sans-serif" letter-spacing="0" word-spacing="0"><tspan y="257.506" x="669.07" font-size="17.5">Account 14</tspan></text><text y="350.014" x="755.532" style="line-height:125%" font-size="40" font-family="sans-serif" letter-spacing="0" word-spacing="0"><tspan y="350.014" x="755.532" font-size="17.5">71</tspan></text></svg>