<?xml version="1.0" encoding="UTF-8" standalone="no"?>
<!-- Created with Inkscape (http://www.inkscape.org/) -->
<svg id="svg123618" xmlns:rdf="http://www.w3.org/1999/02/22-rdf-syntax-ns#" xmlns="http://www.w3.org/2000/svg" xml:space="preserve" height="1120.9" viewBox="0 0 2124.6526 1120.9293" width="2124.7" version="1.1" xmlns:cc="http://creativecommons.org/ns#" xmlns:dc="http://purl.org/dc/elements/1.1/"><metadata id="metadata123624"><rdf:RDF><cc:Work rdf:about=""><dc:format>image/svg+xml</dc:format><dc:type rdf:resource="http://purl.org/dc/dcmitype/StillImage"/><dc:title/></cc:Work></rdf:RDF></metadata><defs id="defs123622"><marker id="marker187899" refY="0" refX="0" orient="auto" overflow="visible"><path id="path187901" d="m5.77 0-8.65 5v-10l8.65 5z" fill-rule="evenodd" transform="scale(.4)" stroke="#000" stroke-width="1pt"/></marker><marker id="marker187612" refY="0" refX="0" overflow="visible" orient="auto"><path id="path187614" d="m5.77 0-8.65 5v-10l8.65 5z" fill-rule="evenodd" transform="scale(.4)" stroke="#000" stroke-width="1pt"/></marker><marker id="TriangleOutM" refY="0" refX="0" orient="auto" overflow="visible"><path id="path181048" d="m5.77 0-8.65 5v-10l8.65 5z" fill-rule="evenodd" transform="scale(.4)" stroke="#000" stroke-width="1pt"/></marker></defs><g id="g123626" transform="matrix(1.25 0 0 -1.25 361.04 1029.6)"><text id="text213165" style="word-spacing:0px;letter-spacing:0px" xml:space="preserve" transform="scale(1,-1)" font-size="84px" y="-396.51862" x="554.76147" font-family="sans-serif" line-height="125%" fill="#000000"><tspan id="tspan213167" style="text-anchor:middle;text-align:center" y="-396.51862" x="554.76147">Mixing</tspan><tspan id="tspan213169" style="text-anchor:middle;text-align:center" y="-291.51862" x="554.76147">Contract</tspan></text>
<g id="g189037" transform="translate(90.515 -11.552)"><g id="g188827" transform="translate(-55.955)"><g id="g213589" transform="matrix(-1 0 0 1 658.02 -286.56)"><g id="g123636" transform="translate(906.99 356.94)"><path id="path123638" d="m0 0h-20.123c-1.598 0-2.905-1.308-2.905-2.905v-37.022c0-1.598 1.206-3.411 2.679-4.03 0 0 3.031-1.27 10.287-1.27 7.257 0 10.288 1.27 10.288 1.27 1.473 0.619 2.679 2.432 2.679 4.03v37.022c0 1.597-1.307 2.905-2.905 2.905" fill="#f5a3c7"/></g><g id="g123640" transform="translate(896.92 319.66)"><path id="path123642" d="m0 0c-4.857 0-9.343-0.769-12.967-2.068v-0.574c0-1.598 1.206-3.411 2.68-4.029 0 0 3.03-1.27 10.287-1.27s10.287 1.27 10.287 1.27c1.474 0.618 2.68 2.431 2.68 4.029v0.574c-3.624 1.299-8.11 2.068-12.967 2.068" fill="#f391bc"/></g><g id="g123644" transform="translate(837.55 356.94)"><path id="path123646" d="m0 0h-20.122c-1.599 0-2.905-1.308-2.905-2.905v-37.022c0-1.598 1.205-3.411 2.678-4.03 0 0 3.031-1.27 10.287-1.27 7.258 0 10.289 1.27 10.289 1.27 1.472 0.619 2.678 2.432 2.678 4.03v37.022c0 1.597-1.307 2.905-2.905 2.905" fill="#f5a3c7"/></g><g id="g123648" transform="translate(827.49 319.66)"><path id="path123650" d="m0 0c-4.857 0-9.343-0.769-12.966-2.068v-0.574c0-1.598 1.205-3.411 2.679-4.029 0 0 3.03-1.27 10.287-1.27 7.258 0 10.288 1.27 10.288 1.27 1.473 0.618 2.679 2.431 2.679 4.029v0.574c-3.623 1.299-8.109 2.068-12.967 2.068" fill="#f391bc"/></g><g id="g123652" transform="translate(869.43 353.29)"><path id="path123654" d="m0 0h-20.122c-1.599 0-2.905-1.308-2.905-2.905v-37.023c0-1.597 1.206-3.41 2.678-4.029 0 0 3.031-1.27 10.287-1.27 7.258 0 10.289 1.27 10.289 1.27 1.473 0.619 2.678 2.432 2.678 4.029v37.023c0 1.597-1.307 2.905-2.905 2.905" fill="#f6adcd"/></g><g id="g123656" transform="translate(859.37 316.01)"><path id="path123658" d="m0 0c-4.857 0-9.343-0.769-12.966-2.068v-0.575c0-1.597 1.206-3.41 2.679-4.028 0 0 3.03-1.27 10.287-1.27 7.258 0 10.288 1.27 10.288 1.27 1.474 0.618 2.679 2.431 2.679 4.028v0.575c-3.623 1.299-8.109 2.068-12.967 2.068" fill="#f49ac1"/></g><g id="g123660" transform="translate(937.53 353.29)"><path id="path123662" d="m0 0h-20.123c-1.599 0-2.905-1.308-2.905-2.905v-37.023c0-1.597 1.206-3.41 2.679-4.029 0 0 3.031-1.27 10.286-1.27 7.258 0 10.289 1.27 10.289 1.27 1.473 0.619 2.679 2.432 2.679 4.029v37.023c0 1.597-1.308 2.905-2.905 2.905" fill="#f6adcd"/></g><g id="g123664" transform="translate(927.47 316.01)"><path id="path123666" d="m0 0c-4.856 0-9.342-0.769-12.966-2.068v-0.575c0-1.597 1.206-3.41 2.68-4.028 0 0 3.03-1.27 10.286-1.27 7.258 0 10.288 1.27 10.288 1.27 1.474 0.618 2.68 2.431 2.68 4.028v0.575c-3.624 1.299-8.11 2.068-12.968 2.068" fill="#f49ac1"/></g><g id="g123668" transform="translate(950.33 416.76)"><path id="path123670" d="m0 0c-2.735-0.697-5.793-0.468-8.416 0.875-1.306 0.667-2.513 1.592-3.448 2.827-0.463 0.62-0.859 1.322-1.102 2.129-0.24 0.799-0.317 1.735-0.046 2.655 0.267 0.923 0.877 1.724 1.614 2.26 0.379 0.282 0.855 0.538 1.426 0.65 0.568 0.118 1.206 0.052 1.73-0.154 1.055-0.43 1.669-1.162 2.144-1.84 0.476-0.695 0.803-1.41 1.074-2.129 1.028-2.878 1.179-5.837 0.885-8.749-0.318-2.908-1.172-5.784-2.581-8.416-1.386-2.621-3.396-5.023-5.664-6.871l-2.996 3.804c2.033 1.419 3.684 3.129 4.998 5.187 1.305 2.042 2.205 4.377 2.661 6.811 0.445 2.419 0.476 5.005-0.157 7.282-0.16 0.559-0.366 1.097-0.622 1.539-0.245 0.448-0.568 0.782-0.77 0.884-0.176 0.083-0.293 0.124-0.668-0.086-0.373-0.229-0.648-0.541-0.791-0.909-0.314-0.741-0.045-1.882 0.583-2.842 0.625-0.974 1.548-1.821 2.6-2.458 2.114-1.291 4.763-1.725 7.297-1.276l0.249-1.173z" fill="#f6adcd"/></g><g id="g123672" transform="translate(951.81 375.83)"><path id="path123674" d="m0 0c0-40.147-33.604-53.991-75.055-53.991s-75.053 13.844-75.053 53.991 33.602 53.991 75.053 53.991c41.453 0 75.057-13.844 75.057-53.991" fill="#f6adcd"/></g><g id="g123676" transform="translate(892.6 406.48)"><path id="path123678" d="m0 0c0-26.605-22.439-45.187-54.568-45.187-14.391 0-26.828 3.737-36.184 10.243 0.167-2.641 0.498-5.153 0.97-7.552 9.657-5.442 21.651-8.501 35.214-8.501 35.549 0 60.379 20.971 60.379 50.997 0 8.774-1.384 16.217-4.217 22.422-2.24 0.248-4.517 0.446-6.828 0.591 3.562-5.989 5.234-13.591 5.234-23.013" fill="#f5a3c7"/></g><g id="g123680" transform="translate(895.5 406.48)"><path id="path123682" d="m0 0c0-29.981-25.731-48.092-57.474-48.092s-57.474 18.111-57.474 48.092c0 32.814 20.063 43.841 57.474 43.841 37.413 0 57.476-11.027 57.476-43.841" fill="#f6adcd"/></g><g id="g123684" transform="translate(859.33 386.3)"><path id="path123686" d="m0 0c0-10.458-6.701-13.804-21.298-13.804-14.598 0-21.298 3.346-21.298 13.804s6.7 13.804 21.298 13.804c14.597 0 21.298-3.346 21.298-13.804" fill="#f49ac1"/></g><g id="g123688" transform="translate(868.93 411.55)"><path id="path123690" d="m0 0c0-2.935-2.38-5.314-5.314-5.314-2.935 0-5.314 2.379-5.314 5.314s2.379 5.314 5.314 5.314c2.934 0 5.314-2.379 5.314-5.314" fill="#231f20"/></g><g id="g123692" transform="translate(817.75 411.55)"><path id="path123694" d="m0 0c0-2.935-2.38-5.314-5.314-5.314-2.935 0-5.315 2.379-5.315 5.314s2.38 5.314 5.315 5.314c2.934 0 5.314-2.379 5.314-5.314" fill="#231f20"/></g><g id="g123696" transform="translate(830.02 386.3)"><path id="path123698" d="m0 0c0-4.275-1.785-5.5-3.985-5.5-2.202 0-3.986 1.225-3.986 5.5 0 4.274 1.784 5.5 3.986 5.5 2.2 0 3.985-1.226 3.985-5.5" fill="#f173ac"/></g><g id="g123700" transform="translate(854.01 386.3)"><path id="path123702" d="m0 0c0-4.275-1.785-5.5-3.985-5.5-2.201 0-3.986 1.225-3.986 5.5 0 4.274 1.785 5.5 3.986 5.5 2.2 0 3.985-1.226 3.985-5.5" fill="#f173ac"/></g><g id="g123704" transform="translate(896.94 415.8)"><path id="path123706" d="m0 0c0-9.934-17.953-2.566-20.676 0.002-1.884 1.779-1.721 6.909-2.414 11.248-0.833 5.223-4.027 19.103-16.214 21.971 12.494 1.943 39.304-8.513 39.304-33.221" fill="#f49ac1"/></g><g id="g123708" transform="translate(779.12 415.8)"><path id="path123710" d="m0 0c0-9.934 17.953-2.566 20.675 0.002 1.885 1.779 1.722 6.909 2.415 11.248 0.833 5.223 4.027 19.103 16.213 21.971-12.493 1.943-39.303-8.513-39.303-33.221" fill="#f49ac1"/></g></g><g><path id="path213880" style="color-rendering:auto;text-decoration-color:#000000;color:#000000;isolation:auto;mix-blend-mode:normal;shape-rendering:auto;solid-color:#000000;block-progression:tb;text-decoration-line:none;text-decoration-style:solid;image-rendering:auto;white-space:normal;text-indent:0;text-transform:none" d="m154.32 107.91 0.23749-15.228h-213.67v-8h213.79l0.21563-13.925 15.944 9.5375 15.945 9.5375-16.233 9.0391-16.233 9.0391z" fill-rule="evenodd"/><g id="flowRoot213922" transform="matrix(1.9312 0 0 -1.9312 -45.148 1024.7)"><path id="path187297" d="m57.227 537.63h-1.9531l-0.01953-5.8789q-2.0508-0.0391-4.1016-0.46875-2.0508-0.44922-4.1211-1.3281v-3.5156q1.9922 1.25 4.0234 1.8945 2.0508 0.625 4.2188 0.64453v-8.9062q-4.3164-0.70312-6.2891-2.3828-1.9531-1.6797-1.9531-4.6094 0-3.1836 2.1289-5.0195t6.1133-2.1094v-4.5898h1.9531v4.5312q1.8164 0.0781 3.5156 0.39063 1.6992 0.29297 3.3203 0.82031v3.418q-1.6211-0.82031-3.3398-1.2695-1.6992-0.44922-3.4961-0.52734v8.3398q4.4336 0.68359 6.5234 2.4414t2.0898 4.8047q0 3.3008-2.2266 5.2148-2.207 1.8945-6.3867 2.1875v5.918zm-1.9531-20.918v-8.0078q-2.2656 0.25391-3.457 1.2891t-1.1914 2.7539q0 1.6797 1.0938 2.6172 1.1133 0.9375 3.5547 1.3477zm1.9531 3.75v8.457q2.4805-0.33203 3.7305-1.4062 1.2695-1.0742 1.2695-2.832 0-1.7188-1.2109-2.7344-1.1914-1.0156-3.7891-1.4844z"/></g><text id="text213930" style="word-spacing:0px;letter-spacing:0px" xml:space="preserve" transform="scale(1,-1)" font-size="32px" y="-135.82771" x="-39.400291" font-family="sans-serif" line-height="125%" fill="#000000"><tspan id="tspan213932" font-size="40px" y="-135.82771" x="-39.400291">Public Key</tspan></text>
</g></g><g id="g188755" transform="translate(-55.955 -12.813)"><g id="g213668" transform="matrix(-1 0 0 1 628.71 267.81)"><g id="g124342" transform="translate(902.1 145.25)"><path id="path124344" d="m0 0c10.929 7.037 35.177 9.633 43.479-5.47 13.037-23.713 2.197-56.051 3.974-74.726-9.048 0-14.667 10.571-14.979 17.054 0.312-6.483-6.68-11.195-6.68-11.195-8.62 12.816 17.685 76.691-17.489 69.89-19.785-3.825-8.305 4.447-8.305 4.447" fill="#58595b"/></g><g id="g124346" transform="translate(785.57 215.95)"><path id="path124348" d="m0 0c-3.648 7.355 0 12.099 0 12.099 1.425-3.409 3.284-3.603 3.284-3.603-0.839 10.103 6.203 13.637 6.203 13.637 0-6.568 0.73-9.67 3.831-12.589 2.515 1.415 3.467 4.744 3.467 4.744 4.001-4.273 3.321-10.892 0-15.508-4.145-5.762-16.785 1.22-16.785 1.22" fill="#58595b"/></g><g id="g124350" transform="translate(765.3 216.35)"><path id="path124352" d="m0 0c-3.566 6.177 1.233 16.026 1.233 16.026s10.704-0.898 14.271-7.076c4.795-8.303 7.973-21.824 3.691-24.296-4.28-2.471-14.401 7.042-19.195 15.346" fill="#fed09e"/></g><g id="g124354" transform="translate(782.26 204.87)"><path id="path124356" d="m0 0c0.563 2.73-0.933 11.23-5.049 18.358-2.227 3.86-8.008 4.257-8.008 4.257s-2.546-5.204-0.317-9.063c4.115-7.129 10.728-12.675 13.374-13.552" fill="#e6be91"/></g><g id="g124358" transform="translate(907.85 112.75)"><path id="path124360" d="m0 0h-14.149c-1.491 0-2.708-1.219-2.708-2.708l-2.302-72.55c0-1.49 1.124-3.179 2.497-3.755 0 0 2.824-1.183 9.587-1.183s9.588 1.183 9.588 1.183c1.373 0.576 2.497 2.265 2.497 3.755l-2.303 72.55c0 1.489-1.219 2.708-2.707 2.708" fill="#e6be91"/></g><g id="g124362" transform="translate(900.77 39.951)"><path id="path124364" d="m0 0c-4.527 0-8.707-0.717-12.084-1.927v-0.535c0-1.49 1.124-3.18 2.497-3.755 0 0 2.824-1.184 9.587-1.184 6.764 0 9.588 1.184 9.588 1.184 1.373 0.575 2.497 2.265 2.497 3.755v0.535c-3.377 1.21-7.558 1.927-12.085 1.927" fill="#d1ae85"/></g><g id="g124366" transform="translate(844.65 112.75)"><path id="path124368" d="m0 0h-14.148c-1.49 0-2.708-1.219-2.708-2.708l-2.302-72.55c0-1.49 1.123-3.179 2.496-3.755 0 0 2.825-1.183 9.588-1.183s9.588 1.183 9.588 1.183c1.373 0.576 2.497 2.265 2.497 3.755l-2.303 72.55c0 1.489-1.219 2.708-2.708 2.708" fill="#e6be91"/></g><g id="g124370" transform="translate(837.57 39.951)"><path id="path124372" d="m0 0c-4.527 0-8.707-0.717-12.084-1.927v-0.535c0-1.49 1.123-3.18 2.496-3.755 0 0 2.825-1.184 9.588-1.184 6.764 0 9.588 1.184 9.588 1.184 1.373 0.575 2.497 2.265 2.497 3.755v0.535c-3.378 1.21-7.558 1.927-12.085 1.927" fill="#d1ae85"/></g><g id="g124374" transform="translate(921.69 124.2)"><path id="path124376" d="m0 0c0-31.336-31.228-42.141-63.582-42.141-32.355 0-63.582 10.805-63.582 42.141s31.227 42.141 63.582 42.141c32.35 0 63.578-10.805 63.578-42.141" fill="#fed09e"/></g><g id="g124378" transform="translate(828.05 157)"><path id="path124380" d="m0 0c0-21.176-13.436-35.411-33.439-35.451 0.123-2.091 0.395-4.082 0.8-5.982 22.794 0.429 38.639 17.338 38.639 41.433 0 2.388-0.068 4.729-0.198 7.021-2.024-0.421-4.003-0.908-5.936-1.456 0.084-1.824 0.134-3.676 0.134-5.565" fill="#e6be91"/></g><g id="g124382" transform="translate(826.01 109.34)"><path id="path124384" d="m0 0h-14.148c-1.49 0-2.708-1.219-2.708-2.708l-2.302-72.55c0-1.489 1.124-3.179 2.497-3.755 0 0 2.824-1.183 9.587-1.183s9.588 1.183 9.588 1.183c1.373 0.576 2.497 2.266 2.497 3.755l-2.302 72.55c0 1.489-1.22 2.708-2.709 2.708" fill="#fed09e"/></g><g id="g124386" transform="translate(818.94 36.546)"><path id="path124388" d="m0 0c-4.527 0-8.707-0.716-12.084-1.927v-0.535c0-1.489 1.124-3.179 2.497-3.755 0 0 2.824-1.184 9.587-1.184 6.764 0 9.588 1.184 9.588 1.184 1.373 0.576 2.497 2.266 2.497 3.755v0.535c-3.378 1.211-7.558 1.927-12.085 1.927" fill="#e6be91"/></g><g id="g124390" transform="translate(889.11 109.34)"><path id="path124392" d="m0 0h-14.148c-1.49 0-2.708-1.219-2.708-2.708l-2.303-72.55c0-1.489 1.124-3.179 2.497-3.755 0 0 2.824-1.183 9.588-1.183 6.763 0 9.587 1.183 9.587 1.183 1.374 0.576 2.498 2.266 2.498 3.755l-2.303 72.55c0 1.489-1.219 2.708-2.708 2.708" fill="#fed09e"/></g><g id="g124394" transform="translate(882.04 36.546)"><path id="path124396" d="m0 0c-4.527 0-8.707-0.716-12.085-1.927v-0.535c0-1.489 1.124-3.179 2.497-3.755 0 0 2.824-1.184 9.588-1.184s9.587 1.184 9.587 1.184c1.374 0.576 2.498 2.266 2.498 3.755v0.535c-3.377 1.211-7.558 1.927-12.085 1.927" fill="#e6be91"/></g><g id="g124398" transform="translate(823.76 216.35)"><path id="path124400" d="m0 0c3.567 6.177-1.234 16.025-1.234 16.025s-10.703-0.897-14.269-7.075c-4.795-8.303-7.974-21.824-3.692-24.296 4.281-2.471 14.401 7.042 19.195 15.346" fill="#fed09e"/></g><g id="g124402" transform="translate(820.17 218.42)"><path id="path124404" d="m0 0c2.229 3.859-0.317 9.063-0.317 9.063s-5.78-0.397-8.008-4.257c-4.115-7.127-5.613-15.628-5.049-18.358 2.645 0.878 9.26 6.424 13.374 13.552" fill="#e6be91"/></g><g id="g124406" transform="translate(758.01 157)"><path id="path124408" d="m0 0c0-22.676 14.694-38.453 36.522-38.453 21.829 0 36.524 15.777 36.524 38.453 0 34.955-14.696 60.628-36.524 60.628-21.829 0-36.522-25.673-36.522-60.628" fill="#fed09e"/></g><g id="g124410" transform="translate(825.97 189.58)"><path id="path124412" d="m0 0c-3.513 9.925-8.72 17.732-15.225 22.562-3.689-9.469-5.611-26.618 15.225-22.562" fill="#e6be91"/></g><g id="g124414" transform="translate(770.19 203.65)"><path id="path124416" d="m0 0c-7.694-10.882-12.185-27.347-12.185-46.657 0-2.926 0.25-5.736 0.723-8.413 10.241 4.245 23.304 10.747 27.774 17.758 6.608 10.368-4.23 28.03-16.312 37.312" fill="#e6be91"/></g><g id="g124418" transform="translate(828.86 142.71)"><path id="path124420" d="m0 0c-9.791 3.163-21.604 5.011-34.325 5.011s-24.535-1.848-34.326-5.011c4.859-14.743 17.459-24.168 34.325-24.168s29.466 9.425 34.326 24.168" fill="#feddb9"/></g><g id="g124422" transform="translate(810.73 167.72)"><path id="path124424" d="m0 0c0-3.037 2.462-5.5 5.5-5.5 3.037 0 5.5 2.463 5.5 5.5 0 3.038-2.463 5.5-5.5 5.5-3.038 0-5.5-2.462-5.5-5.5" fill="#231f20"/></g><g id="g124426" transform="translate(767.34 167.72)"><path id="path124428" d="m0 0c0-3.037 2.463-5.5 5.5-5.5s5.5 2.463 5.5 5.5c0 3.038-2.463 5.5-5.5 5.5s-5.5-2.462-5.5-5.5" fill="#231f20"/></g><g id="g124430" transform="translate(785.84 140.85)"><path id="path124432" d="m0 0c0-1.51-1.225-2.735-2.734-2.735-1.511 0-2.736 1.225-2.736 2.735s1.225 2.735 2.736 2.735c1.509 0 2.734-1.225 2.734-2.735" fill="#d6a477"/></g><g id="g124434" transform="translate(803.05 140.85)"><path id="path124436" d="m0 0c0-1.51 1.225-2.735 2.735-2.735s2.735 1.225 2.735 2.735-1.225 2.735-2.735 2.735-2.735-1.225-2.735-2.735" fill="#d6a477"/></g><g id="g124438" transform="translate(878.58 137.46)"><path id="path124440" d="m0 0c10.707 6.185 19.468 12.458 26.229 17.875-12.075 7.843-29.217 11.007-46.699 11.007-2.401 0-4.795-0.067-7.172-0.19-0.605-16.751 5.403-41.539 27.642-28.692" fill="#e6be91"/></g><g id="g124442" transform="translate(840.96 83.169)"><path id="path124444" d="m0 0c-0.342 0.743-0.706 1.498-1.122 2.283-13.68 25.84-27.544 27.771-39.968 19.013 7.819-12.408 23.389-18.899 41.09-21.296" fill="#e6be91"/></g><g id="g124446" transform="translate(842.29 128.38)"><path id="path124448" d="m0 0c-3.504-1.13-9.074-5.933-4.712-17.799 4.363-11.867 23.209-15.007 34.684-3.946 11.474 11.062-22.91 24.022-29.972 21.745" fill="#e6be91"/></g><g id="g124450" transform="translate(921.54 120.7)"><path id="path124452" d="m0 0c-27.74 6.052-28.862-13.597-19.317-29.208 10.838 6.114 18.239 15.541 19.317 29.208" fill="#e6be91"/></g><g id="g124454" transform="translate(807.41 51.659)"><path id="path124456" d="m0 0c17.995 5.779 12.592 17.66 0.837 26.376l-0.837-26.376z" fill="#e6be91"/></g><g id="g124458" transform="translate(830.22 59.388)"><path id="path124460" d="m0 0c-7.688-5.789-12.12-14.934 0.532-16.764l-0.532 16.764z" fill="#e6be91"/></g><g id="g124462" transform="translate(893.24 61.834)"><path id="path124464" d="m0 0c-9.851-7.308-14.676-18.255 0.62-19.55l-0.62 19.55z" fill="#e6be91"/></g><g id="g124466" transform="translate(871.26 75.062)"><path id="path124468" d="m0 0-0.699-22.019c16.888 9.974 11.609 15.747 0.699 22.019" fill="#e6be91"/></g></g><g><path id="path187865" style="color-rendering:auto;text-decoration-color:#000000;color:#000000;isolation:auto;mix-blend-mode:normal;shape-rendering:auto;solid-color:#000000;block-progression:tb;text-decoration-line:none;text-decoration-style:solid;image-rendering:auto;white-space:normal;text-indent:0;text-transform:none" d="m138.03 401.17 0.23749-15.228h-213.67v-8h213.79l0.21563-13.925 15.944 9.5375 15.945 9.5375-16.233 9.0391-16.233 9.0391z" fill-rule="evenodd"/><g id="g187867" transform="matrix(1.9312 0 0 -1.9312 -61.44 1318)"><path id="path187869" d="m57.227 537.63h-1.9531l-0.01953-5.8789q-2.0508-0.0391-4.1016-0.46875-2.0508-0.44922-4.1211-1.3281v-3.5156q1.9922 1.25 4.0234 1.8945 2.0508 0.625 4.2188 0.64453v-8.9062q-4.3164-0.70312-6.2891-2.3828-1.9531-1.6797-1.9531-4.6094 0-3.1836 2.1289-5.0195t6.1133-2.1094v-4.5898h1.9531v4.5312q1.8164 0.0781 3.5156 0.39063 1.6992 0.29297 3.3203 0.82031v3.418q-1.6211-0.82031-3.3398-1.2695-1.6992-0.44922-3.4961-0.52734v8.3398q4.4336 0.68359 6.5234 2.4414t2.0898 4.8047q0 3.3008-2.2266 5.2148-2.207 1.8945-6.3867 2.1875v5.918zm-1.9531-20.918v-8.0078q-2.2656 0.25391-3.457 1.2891t-1.1914 2.7539q0 1.6797 1.0938 2.6172 1.1133 0.9375 3.5547 1.3477zm1.9531 3.75v8.457q2.4805-0.33203 3.7305-1.4062 1.2695-1.0742 1.2695-2.832 0-1.7188-1.2109-2.7344-1.1914-1.0156-3.7891-1.4844z"/></g><text id="text187871" style="word-spacing:0px;letter-spacing:0px" transform="scale(1,-1)" line-height="125%" xml:space="preserve" font-size="32px" y="-429.08063" x="-55.692104" font-family="sans-serif" fill="#000000"><tspan id="tspan187873" font-size="40px" y="-429.08063" x="-55.692104">Public Key</tspan></text>
</g></g><g id="g188708" transform="translate(-55.955)"><g id="g213799" transform="matrix(1.1047 0 0 1.1047 -490.83 273.31)"><g id="g123712" transform="translate(224.07 367.27)"><path id="path123714" d="m0 0h10.754c1.132 0 2.058-0.926 2.058-2.058l1.75-61.219c0-1.132-0.855-2.416-1.898-2.853 0 0-2.147-0.9-7.287-0.9s-7.286 0.9-7.286 0.9c-1.044 0.437-1.899 1.721-1.899 2.853l1.75 61.219c0 1.132 0.927 2.058 2.058 2.058" fill="#ecd6c0"/></g><g id="g123716" transform="translate(229.44 305.87)"><path id="path123718" d="m0 0c3.441 0 6.618-0.544 9.185-1.465v-0.407c0-1.131-0.855-2.416-1.898-2.853 0 0-2.147-0.9-7.287-0.9s-7.286 0.9-7.286 0.9c-1.044 0.437-1.899 1.722-1.899 2.853v0.407c2.567 0.921 5.744 1.465 9.185 1.465" fill="#e9ceb3"/></g><g id="g123720" transform="translate(289.87 367.27)"><path id="path123722" d="m0 0h10.753c1.132 0 2.058-0.926 2.058-2.058l1.75-61.219c0-1.132-0.854-2.416-1.898-2.853 0 0-2.146-0.9-7.287-0.9-5.14 0-7.286 0.9-7.286 0.9-1.044 0.437-1.898 1.721-1.898 2.853l1.75 61.219c0 1.132 0.926 2.058 2.058 2.058" fill="#ecd6c0"/></g><g id="g123724" transform="translate(295.25 305.87)"><path id="path123726" d="m0 0c3.441 0 6.618-0.544 9.185-1.465v-0.407c0-1.131-0.854-2.416-1.898-2.853 0 0-2.147-0.9-7.287-0.9s-7.287 0.9-7.287 0.9c-1.043 0.437-1.897 1.722-1.897 2.853v0.407c2.566 0.921 5.743 1.465 9.184 1.465" fill="#e9ceb3"/></g><g id="g123728" transform="translate(269.04 364.68)"><path id="path123730" d="m0 0h10.753c1.133 0 2.059-0.926 2.059-2.058l1.749-61.218c0-1.132-0.854-2.416-1.898-2.854 0 0-2.146-0.9-7.286-0.9-5.141 0-7.287 0.9-7.287 0.9-1.044 0.438-1.898 1.722-1.898 2.854l1.75 61.218c0 1.132 0.927 2.058 2.058 2.058" fill="#f0dfce"/></g><g id="g123732" transform="translate(274.41 303.28)"><path id="path123734" d="m0 0c3.44 0 6.618-0.545 9.184-1.464v-0.408c0-1.131-0.854-2.416-1.898-2.853 0 0-2.146-0.9-7.286-0.9-5.141 0-7.287 0.9-7.287 0.9-1.044 0.437-1.898 1.722-1.898 2.853v0.407c2.567 0.92 5.744 1.465 9.185 1.465" fill="#ecd6c0"/></g><g id="g123736" transform="translate(203.31 364.68)"><path id="path123738" d="m0 0h10.753c1.133 0 2.059-0.926 2.059-2.058l1.75-61.218c0-1.132-0.855-2.416-1.898-2.854 0 0-2.146-0.9-7.287-0.9-5.14 0-7.286 0.9-7.286 0.9-1.045 0.438-1.899 1.722-1.899 2.854l1.75 61.218c0 1.132 0.927 2.058 2.058 2.058" fill="#f0dfce"/></g><g id="g123740" transform="translate(208.68 303.28)"><path id="path123742" d="m0 0c3.44 0 6.617-0.545 9.184-1.464v-0.408c0-1.131-0.854-2.416-1.898-2.853 0 0-2.146-0.9-7.286-0.9-5.141 0-7.287 0.9-7.287 0.9-1.044 0.437-1.898 1.722-1.898 2.853v0.407c2.567 0.92 5.744 1.465 9.185 1.465" fill="#ecd6c0"/></g><g id="g123744" transform="translate(309.09 383.97)"><path id="path123746" d="m0 0c2.524 1.975 4.152 5.042 4.152 8.495 0 5.959-4.831 10.79-10.79 10.79-0.048 0-0.093-0.006-0.141-0.007 0.084 0.543 0.141 1.094 0.141 1.66 0 5.958-4.832 10.79-10.791 10.79-1.004 0-1.972-0.148-2.895-0.405-0.676 5.309-5.201 9.416-10.694 9.416-3.277 0-6.209-1.467-8.188-3.775-1.979 2.357-4.944 3.857-8.262 3.857-2.24 0-4.322-0.683-6.046-1.852-1.974 2.175-4.815 3.549-7.983 3.549-3.744 0-7.041-1.908-8.976-4.804-1.947 1.92-4.62 3.107-7.571 3.107-4.449 0-8.267-2.694-9.917-6.538-1.759 1.245-3.903 1.984-6.222 1.984-5.68 0-10.325-4.392-10.748-9.964-1.413 0.678-2.99 1.071-4.662 1.071-3.556 0-6.7-1.728-8.666-4.381-1.966 2.653-5.11 4.381-8.666 4.381-5.959 0-10.79-4.832-10.79-10.791s4.831-10.79 10.79-10.79c0.204 0 0.402 0.019 0.602 0.03-0.383-1.107-0.602-2.29-0.602-3.527 0-3.313 1.496-6.274 3.846-8.254-0.915-1.584-1.447-3.419-1.447-5.381 0-3.743 1.907-7.038 4.801-8.974-0.1-0.591-0.164-1.195-0.164-1.816 0-5.959 4.831-10.79 10.79-10.79 1.469 0 2.868 0.296 4.144 0.827 0.194-5.789 4.936-10.426 10.772-10.426 3.106 0 5.897 1.32 7.866 3.419 0.899-5.05 5.303-8.889 10.612-8.889 3.291 0 6.232 1.478 8.211 3.8 1.889-3.13 5.312-5.23 9.235-5.23 3.649 0 6.87 1.817 8.822 4.59 1.953-1.953 4.65-3.16 7.629-3.16 4.495 0 8.345 2.75 9.967 6.657 1.473-0.753 3.136-1.187 4.904-1.187 5.558 0 10.13 4.203 10.722 9.602 0.023 0 0.046-0.003 0.069-0.003 5.959 0 10.79 4.831 10.79 10.79 0 1.002-0.147 1.968-0.403 2.888 5.548 0.449 9.911 5.084 9.911 10.746 0.005 3.453-1.623 6.52-4.147 8.495" fill="#f0dfce"/></g><g id="g123748" transform="translate(300.38 368.5)"><path id="path123750" d="m0 0c4.092 0 7.897 0.526 11.365 1.508 0.948 1.605 1.501 3.471 1.501 5.471 0 0.234-0.025 0.461-0.04 0.692-3.974-1.63-8.405-2.421-12.826-2.421-13.645 0-27.414 7.484-27.414 24.205 0 6.945 2.391 17.222 6.26 26.691-0.378 0.041-0.76 0.066-1.149 0.066-1.817 0-3.519-0.463-5.02-1.258-3.394-9.157-5.34-18.605-5.34-25.499 0-17.618 13.127-29.455 32.663-29.455" fill="#ecd6c0"/></g><g id="g123752" transform="translate(340.35 425.22)"><path id="path123754" d="m0 0c6.545-1.753 9.875-6.587 8.66-11.124-1.215-4.536-6.516-7.058-13.062-5.303-8.799 2.357-20.016 9.304-18.801 13.841 1.215 4.536 14.404 4.944 23.203 2.586" fill="#e9ceb3"/></g><g id="g123756" transform="translate(321.24 421.53)"><path id="path123758" d="m0 0c1.455-2.212 8.17-6.917 15.723-8.941 4.09-1.096 7.555-0.036 8.24 2.52s-1.786 5.206-5.876 6.302c-7.552 2.024-15.721 1.307-18.087 0.119" fill="#ecd6c0"/></g><g id="g123760" transform="translate(260.41 425.22)"><path id="path123762" d="m0 0c-6.545-1.753-9.875-6.587-8.66-11.124 1.215-4.536 6.516-7.058 13.062-5.303 8.799 2.357 20.016 9.304 18.801 13.841-1.215 4.536-14.404 4.944-23.203 2.586" fill="#e9ceb3"/></g><g id="g123764" transform="translate(261.43 421.42)"><path id="path123766" d="m0 0c-4.09-1.096-6.561-3.746-5.876-6.302s4.15-3.615 8.239-2.52c7.553 2.024 14.269 6.729 15.724 8.941-2.366 1.188-10.535 1.905-18.087-0.119" fill="#ecd6c0"/></g><g id="g123768" transform="translate(330.42 397.95)"><path id="path123770" d="m0 0c0-17.234-13.449-26.83-30.038-26.83-16.59 0-30.038 9.596-30.038 26.83s13.448 53.078 30.038 53.078c16.589 0 30.038-35.844 30.038-53.078" fill="#f0dfce"/></g><g id="g123772" transform="translate(329.5 436.29)"><path id="path123774" d="m0 0c1.081 0.964 1.929 2.217 2.395 3.699 1.375 4.379-1.06 9.045-5.439 10.42-0.885 0.278-1.78 0.393-2.659 0.376 0.84 4.12-1.555 8.291-5.655 9.579-1.511 0.474-3.053 0.486-4.485 0.13-0.948 2.057-2.72 3.725-5.051 4.457-3.734 1.173-7.67-0.431-9.603-3.644-0.864 0.784-1.901 1.404-3.087 1.776-4.379 1.376-9.045-1.059-10.42-5.439-0.231-0.732-0.345-1.473-0.371-2.206-4.086 0.78-8.199-1.605-9.476-5.671-0.31-0.984-0.416-1.982-0.361-2.955-2.646-0.716-4.884-2.718-5.766-5.527-0.843-2.685-0.25-5.475 1.342-7.551-1.315-1.005-2.347-2.406-2.881-4.105-1.375-4.38 1.06-9.045 5.439-10.42 3.271-1.027 6.701 0.073 8.801 2.519 0.997-1.802 2.654-3.242 4.775-3.908 2.211-0.695 4.493-0.416 6.39 0.592 0.887-2.26 2.748-4.115 5.245-4.899 3.927-1.234 8.077 0.603 9.886 4.152 0.423-0.22 0.867-0.413 1.339-0.561 4.358-1.369 8.998 1.038 10.398 5.378 0.634-0.419 1.332-0.762 2.093-1.002 4.379-1.375 9.045 1.06 10.421 5.439 1.126 3.589-0.307 7.366-3.27 9.371" fill="#ecd6c0"/></g><g id="g123776" transform="translate(287.83 406.1)"><path id="path123778" d="m0 0c0-2.174-1.763-3.937-3.937-3.937s-3.937 1.763-3.937 3.937 1.763 3.937 3.937 3.937 3.937-1.763 3.937-3.937" fill="#231f20"/></g><g id="g123780" transform="translate(320.8 406.1)"><path id="path123782" d="m0 0c0-2.174-1.763-3.937-3.937-3.937s-3.937 1.763-3.937 3.937 1.763 3.937 3.937 3.937 3.937-1.763 3.937-3.937" fill="#231f20"/></g><g id="g123784" transform="translate(305.96 390.04)"><path id="path123786" d="m0 0c0-1.631-5.577-3.828-5.577-3.828s-5.578 2.197-5.578 3.828c0 1.63 2.497 2.078 5.578 2.078 3.08 0 5.577-0.448 5.577-2.078" fill="#e9ceb3"/></g><path id="path123788" d="m300.97 377.1h-1.187v9.111h1.187v-9.111z" fill="#e9ceb3"/></g><g><path id="path187875" style="color-rendering:auto;text-decoration-color:#000000;color:#000000;isolation:auto;mix-blend-mode:normal;shape-rendering:auto;solid-color:#000000;block-progression:tb;text-decoration-line:none;text-decoration-style:solid;image-rendering:auto;white-space:normal;text-indent:0;text-transform:none" d="m142.69 701.4 0.23749-15.228h-213.67v-8h213.79l0.21563-13.925 15.944 9.5375 15.945 9.5375-16.233 9.0391-16.233 9.0391z" fill-rule="evenodd"/><g id="g187877" transform="matrix(1.9312 0 0 -1.9312 -56.785 1618.2)"><path id="path187879" d="m57.227 537.63h-1.9531l-0.01953-5.8789q-2.0508-0.0391-4.1016-0.46875-2.0508-0.44922-4.1211-1.3281v-3.5156q1.9922 1.25 4.0234 1.8945 2.0508 0.625 4.2188 0.64453v-8.9062q-4.3164-0.70312-6.2891-2.3828-1.9531-1.6797-1.9531-4.6094 0-3.1836 2.1289-5.0195t6.1133-2.1094v-4.5898h1.9531v4.5312q1.8164 0.0781 3.5156 0.39063 1.6992 0.29297 3.3203 0.82031v3.418q-1.6211-0.82031-3.3398-1.2695-1.6992-0.44922-3.4961-0.52734v8.3398q4.4336 0.68359 6.5234 2.4414t2.0898 4.8047q0 3.3008-2.2266 5.2148-2.207 1.8945-6.3867 2.1875v5.918zm-1.9531-20.918v-8.0078q-2.2656 0.25391-3.457 1.2891t-1.1914 2.7539q0 1.6797 1.0938 2.6172 1.1133 0.9375 3.5547 1.3477zm1.9531 3.75v8.457q2.4805-0.33203 3.7305-1.4062 1.2695-1.0742 1.2695-2.832 0-1.7188-1.2109-2.7344-1.1914-1.0156-3.7891-1.4844z"/></g><text id="text187881" style="word-spacing:0px;letter-spacing:0px" transform="scale(1,-1)" line-height="125%" xml:space="preserve" font-size="32px" y="-729.31573" x="-51.037266" font-family="sans-serif" fill="#000000"><tspan id="tspan187883" font-size="40px" y="-729.31573" x="-51.037266">Public Key</tspan></text>
</g></g></g><g id="g188545" transform="translate(-83.932 .0000021682)"><g id="g188378"><path id="path181584" marker-end="url(#TriangleOutM)" d="m1238.1 113.62c-121.78-77.492-216.67-7.682-216.67-7.682" stroke="#000" stroke-miterlimit="0" stroke-width="8.8664" fill="none"/><g><text id="text187015" style="word-spacing:0px;letter-spacing:0px" transform="scale(1,-1)" line-height="125%" xml:space="preserve" font-size="40px" y="-149.66696" x="1088.974" font-family="sans-serif" fill="#000000"><tspan id="tspan187017" y="-149.66696" x="1088.974">Tag</tspan><tspan id="tspan187019" y="-99.666962" x="1088.974"/></text>
<path id="path187299" style="color-rendering:auto;text-decoration-color:#000000;color:#000000;isolation:auto;mix-blend-mode:normal;shape-rendering:auto;solid-color:#000000;block-progression:tb;text-decoration-line:none;text-decoration-style:solid;image-rendering:auto;white-space:normal;text-indent:0;text-transform:none" d="m1211.4 48.454 0.2375-15.228h-213.67v-8h213.79l0.2157-13.925 15.944 9.5375 15.945 9.5375-16.233 9.0391-16.233 9.0391z" fill-rule="evenodd"/><g id="g187301" transform="matrix(1.9312 0 0 -1.9312 1012 965.24)"><path id="path187303" d="m57.227 537.63h-1.9531l-0.01953-5.8789q-2.0508-0.0391-4.1016-0.46875-2.0508-0.44922-4.1211-1.3281v-3.5156q1.9922 1.25 4.0234 1.8945 2.0508 0.625 4.2188 0.64453v-8.9062q-4.3164-0.70312-6.2891-2.3828-1.9531-1.6797-1.9531-4.6094 0-3.1836 2.1289-5.0195t6.1133-2.1094v-4.5898h1.9531v4.5312q1.8164 0.0781 3.5156 0.39063 1.6992 0.29297 3.3203 0.82031v3.418q-1.6211-0.82031-3.3398-1.2695-1.6992-0.44922-3.4961-0.52734v8.3398q4.4336 0.68359 6.5234 2.4414t2.0898 4.8047q0 3.3008-2.2266 5.2148-2.207 1.8945-6.3867 2.1875v5.918zm-1.9531-20.918v-8.0078q-2.2656 0.25391-3.457 1.2891t-1.1914 2.7539q0 1.6797 1.0938 2.6172 1.1133 0.9375 3.5547 1.3477zm1.9531 3.75v8.457q2.4805-0.33203 3.7305-1.4062 1.2695-1.0742 1.2695-2.832 0-1.7188-1.2109-2.7344-1.1914-1.0156-3.7891-1.4844z"/></g></g><g id="g187470" transform="matrix(-1.1047 0 0 1.1047 1683.9 -339.92)"><g id="g187472" transform="translate(224.07 367.27)"><path id="path187474" d="m0 0h10.754c1.132 0 2.058-0.926 2.058-2.058l1.75-61.219c0-1.132-0.855-2.416-1.898-2.853 0 0-2.147-0.9-7.287-0.9s-7.286 0.9-7.286 0.9c-1.044 0.437-1.899 1.721-1.899 2.853l1.75 61.219c0 1.132 0.927 2.058 2.058 2.058" fill="#ecd6c0"/></g><g id="g187476" transform="translate(229.44 305.87)"><path id="path187478" d="m0 0c3.441 0 6.618-0.544 9.185-1.465v-0.407c0-1.131-0.855-2.416-1.898-2.853 0 0-2.147-0.9-7.287-0.9s-7.286 0.9-7.286 0.9c-1.044 0.437-1.899 1.722-1.899 2.853v0.407c2.567 0.921 5.744 1.465 9.185 1.465" fill="#e9ceb3"/></g><g id="g187480" transform="translate(289.87 367.27)"><path id="path187482" d="m0 0h10.753c1.132 0 2.058-0.926 2.058-2.058l1.75-61.219c0-1.132-0.854-2.416-1.898-2.853 0 0-2.146-0.9-7.287-0.9-5.14 0-7.286 0.9-7.286 0.9-1.044 0.437-1.898 1.721-1.898 2.853l1.75 61.219c0 1.132 0.926 2.058 2.058 2.058" fill="#ecd6c0"/></g><g id="g187484" transform="translate(295.25 305.87)"><path id="path187486" d="m0 0c3.441 0 6.618-0.544 9.185-1.465v-0.407c0-1.131-0.854-2.416-1.898-2.853 0 0-2.147-0.9-7.287-0.9s-7.287 0.9-7.287 0.9c-1.043 0.437-1.897 1.722-1.897 2.853v0.407c2.566 0.921 5.743 1.465 9.184 1.465" fill="#e9ceb3"/></g><g id="g187488" transform="translate(269.04 364.68)"><path id="path187490" d="m0 0h10.753c1.133 0 2.059-0.926 2.059-2.058l1.749-61.218c0-1.132-0.854-2.416-1.898-2.854 0 0-2.146-0.9-7.286-0.9-5.141 0-7.287 0.9-7.287 0.9-1.044 0.438-1.898 1.722-1.898 2.854l1.75 61.218c0 1.132 0.927 2.058 2.058 2.058" fill="#f0dfce"/></g><g id="g187492" transform="translate(274.41 303.28)"><path id="path187494" d="m0 0c3.44 0 6.618-0.545 9.184-1.464v-0.408c0-1.131-0.854-2.416-1.898-2.853 0 0-2.146-0.9-7.286-0.9-5.141 0-7.287 0.9-7.287 0.9-1.044 0.437-1.898 1.722-1.898 2.853v0.407c2.567 0.92 5.744 1.465 9.185 1.465" fill="#ecd6c0"/></g><g id="g187496" transform="translate(203.31 364.68)"><path id="path187498" d="m0 0h10.753c1.133 0 2.059-0.926 2.059-2.058l1.75-61.218c0-1.132-0.855-2.416-1.898-2.854 0 0-2.146-0.9-7.287-0.9-5.14 0-7.286 0.9-7.286 0.9-1.045 0.438-1.899 1.722-1.899 2.854l1.75 61.218c0 1.132 0.927 2.058 2.058 2.058" fill="#f0dfce"/></g><g id="g187500" transform="translate(208.68 303.28)"><path id="path187502" d="m0 0c3.44 0 6.617-0.545 9.184-1.464v-0.408c0-1.131-0.854-2.416-1.898-2.853 0 0-2.146-0.9-7.286-0.9-5.141 0-7.287 0.9-7.287 0.9-1.044 0.437-1.898 1.722-1.898 2.853v0.407c2.567 0.92 5.744 1.465 9.185 1.465" fill="#ecd6c0"/></g><g id="g187504" transform="translate(309.09 383.97)"><path id="path187506" d="m0 0c2.524 1.975 4.152 5.042 4.152 8.495 0 5.959-4.831 10.79-10.79 10.79-0.048 0-0.093-0.006-0.141-0.007 0.084 0.543 0.141 1.094 0.141 1.66 0 5.958-4.832 10.79-10.791 10.79-1.004 0-1.972-0.148-2.895-0.405-0.676 5.309-5.201 9.416-10.694 9.416-3.277 0-6.209-1.467-8.188-3.775-1.979 2.357-4.944 3.857-8.262 3.857-2.24 0-4.322-0.683-6.046-1.852-1.974 2.175-4.815 3.549-7.983 3.549-3.744 0-7.041-1.908-8.976-4.804-1.947 1.92-4.62 3.107-7.571 3.107-4.449 0-8.267-2.694-9.917-6.538-1.759 1.245-3.903 1.984-6.222 1.984-5.68 0-10.325-4.392-10.748-9.964-1.413 0.678-2.99 1.071-4.662 1.071-3.556 0-6.7-1.728-8.666-4.381-1.966 2.653-5.11 4.381-8.666 4.381-5.959 0-10.79-4.832-10.79-10.791s4.831-10.79 10.79-10.79c0.204 0 0.402 0.019 0.602 0.03-0.383-1.107-0.602-2.29-0.602-3.527 0-3.313 1.496-6.274 3.846-8.254-0.915-1.584-1.447-3.419-1.447-5.381 0-3.743 1.907-7.038 4.801-8.974-0.1-0.591-0.164-1.195-0.164-1.816 0-5.959 4.831-10.79 10.79-10.79 1.469 0 2.868 0.296 4.144 0.827 0.194-5.789 4.936-10.426 10.772-10.426 3.106 0 5.897 1.32 7.866 3.419 0.899-5.05 5.303-8.889 10.612-8.889 3.291 0 6.232 1.478 8.211 3.8 1.889-3.13 5.312-5.23 9.235-5.23 3.649 0 6.87 1.817 8.822 4.59 1.953-1.953 4.65-3.16 7.629-3.16 4.495 0 8.345 2.75 9.967 6.657 1.473-0.753 3.136-1.187 4.904-1.187 5.558 0 10.13 4.203 10.722 9.602 0.023 0 0.046-0.003 0.069-0.003 5.959 0 10.79 4.831 10.79 10.79 0 1.002-0.147 1.968-0.403 2.888 5.548 0.449 9.911 5.084 9.911 10.746 0.005 3.453-1.623 6.52-4.147 8.495" fill="#f0dfce"/></g><g id="g187508" transform="translate(300.38 368.5)"><path id="path187510" d="m0 0c4.092 0 7.897 0.526 11.365 1.508 0.948 1.605 1.501 3.471 1.501 5.471 0 0.234-0.025 0.461-0.04 0.692-3.974-1.63-8.405-2.421-12.826-2.421-13.645 0-27.414 7.484-27.414 24.205 0 6.945 2.391 17.222 6.26 26.691-0.378 0.041-0.76 0.066-1.149 0.066-1.817 0-3.519-0.463-5.02-1.258-3.394-9.157-5.34-18.605-5.34-25.499 0-17.618 13.127-29.455 32.663-29.455" fill="#ecd6c0"/></g><g id="g187512" transform="translate(340.35 425.22)"><path id="path187514" d="m0 0c6.545-1.753 9.875-6.587 8.66-11.124-1.215-4.536-6.516-7.058-13.062-5.303-8.799 2.357-20.016 9.304-18.801 13.841 1.215 4.536 14.404 4.944 23.203 2.586" fill="#e9ceb3"/></g><g id="g187516" transform="translate(321.24 421.53)"><path id="path187518" d="m0 0c1.455-2.212 8.17-6.917 15.723-8.941 4.09-1.096 7.555-0.036 8.24 2.52s-1.786 5.206-5.876 6.302c-7.552 2.024-15.721 1.307-18.087 0.119" fill="#ecd6c0"/></g><g id="g187520" transform="translate(260.41 425.22)"><path id="path187522" d="m0 0c-6.545-1.753-9.875-6.587-8.66-11.124 1.215-4.536 6.516-7.058 13.062-5.303 8.799 2.357 20.016 9.304 18.801 13.841-1.215 4.536-14.404 4.944-23.203 2.586" fill="#e9ceb3"/></g><g id="g187524" transform="translate(261.43 421.42)"><path id="path187526" d="m0 0c-4.09-1.096-6.561-3.746-5.876-6.302s4.15-3.615 8.239-2.52c7.553 2.024 14.269 6.729 15.724 8.941-2.366 1.188-10.535 1.905-18.087-0.119" fill="#ecd6c0"/></g><g id="g187528" transform="translate(330.42 397.95)"><path id="path187530" d="m0 0c0-17.234-13.449-26.83-30.038-26.83-16.59 0-30.038 9.596-30.038 26.83s13.448 53.078 30.038 53.078c16.589 0 30.038-35.844 30.038-53.078" fill="#f0dfce"/></g><g id="g187532" transform="translate(329.5 436.29)"><path id="path187534" d="m0 0c1.081 0.964 1.929 2.217 2.395 3.699 1.375 4.379-1.06 9.045-5.439 10.42-0.885 0.278-1.78 0.393-2.659 0.376 0.84 4.12-1.555 8.291-5.655 9.579-1.511 0.474-3.053 0.486-4.485 0.13-0.948 2.057-2.72 3.725-5.051 4.457-3.734 1.173-7.67-0.431-9.603-3.644-0.864 0.784-1.901 1.404-3.087 1.776-4.379 1.376-9.045-1.059-10.42-5.439-0.231-0.732-0.345-1.473-0.371-2.206-4.086 0.78-8.199-1.605-9.476-5.671-0.31-0.984-0.416-1.982-0.361-2.955-2.646-0.716-4.884-2.718-5.766-5.527-0.843-2.685-0.25-5.475 1.342-7.551-1.315-1.005-2.347-2.406-2.881-4.105-1.375-4.38 1.06-9.045 5.439-10.42 3.271-1.027 6.701 0.073 8.801 2.519 0.997-1.802 2.654-3.242 4.775-3.908 2.211-0.695 4.493-0.416 6.39 0.592 0.887-2.26 2.748-4.115 5.245-4.899 3.927-1.234 8.077 0.603 9.886 4.152 0.423-0.22 0.867-0.413 1.339-0.561 4.358-1.369 8.998 1.038 10.398 5.378 0.634-0.419 1.332-0.762 2.093-1.002 4.379-1.375 9.045 1.06 10.421 5.439 1.126 3.589-0.307 7.366-3.27 9.371" fill="#ecd6c0"/></g><g id="g187536" transform="translate(287.83 406.1)"><path id="path187538" d="m0 0c0-2.174-1.763-3.937-3.937-3.937s-3.937 1.763-3.937 3.937 1.763 3.937 3.937 3.937 3.937-1.763 3.937-3.937" fill="#231f20"/></g><g id="g187540" transform="translate(320.8 406.1)"><path id="path187542" d="m0 0c0-2.174-1.763-3.937-3.937-3.937s-3.937 1.763-3.937 3.937 1.763 3.937 3.937 3.937 3.937-1.763 3.937-3.937" fill="#231f20"/></g><g id="g187544" transform="translate(305.96 390.04)"><path id="path187546" d="m0 0c0-1.631-5.577-3.828-5.577-3.828s-5.578 2.197-5.578 3.828c0 1.63 2.497 2.078 5.578 2.078 3.08 0 5.577-0.448 5.577-2.078" fill="#e9ceb3"/></g><path id="path187548" d="m300.97 377.1h-1.187v9.111h1.187v-9.111z" fill="#e9ceb3"/></g></g><g id="g188430" transform="translate(-3.4268 -3.0524)"><g id="g187185" transform="translate(1134.7 238.1)"><g id="g124158" transform="translate(320.72 150.08)"><path id="path124160" d="m0 0c7.769 4.168 25.769 10.155 42.822-0.267l-3.6-7.01s-17.748 8.966-34.675 3.221c-4.746-1.611-4.547 4.056-4.547 4.056" fill="#58595b"/></g><g id="g124162" transform="translate(322.31 112.75)"><path id="path124164" d="m0 0h-14.149c-1.49 0-2.708-1.219-2.708-2.708l-2.302-72.55c0-1.49 1.124-3.179 2.497-3.755 0 0 2.824-1.183 9.587-1.183s9.588 1.183 9.588 1.183c1.373 0.576 2.497 2.265 2.497 3.755l-2.302 72.55c0 1.489-1.22 2.708-2.708 2.708" fill="#bcbec0"/></g><g id="g124166" transform="translate(315.24 39.951)"><path id="path124168" d="m0 0c-4.527 0-8.707-0.717-12.084-1.927v-0.535c0-1.49 1.124-3.18 2.497-3.755 0 0 2.824-1.184 9.587-1.184 6.764 0 9.588 1.184 9.588 1.184 1.373 0.575 2.497 2.265 2.497 3.755v0.535c-3.377 1.21-7.557 1.927-12.085 1.927" fill="#a7a9ac"/></g><g id="g124170" transform="translate(259.11 112.75)"><path id="path124172" d="m0 0h-14.149c-1.489 0-2.707-1.219-2.707-2.708l-2.303-72.55c0-1.49 1.124-3.179 2.497-3.755 0 0 2.825-1.183 9.588-1.183s9.587 1.183 9.587 1.183c1.373 0.576 2.497 2.265 2.497 3.755l-2.302 72.55c0 1.489-1.219 2.708-2.708 2.708" fill="#bcbec0"/></g><g id="g124174" transform="translate(252.04 39.951)"><path id="path124176" d="m0 0c-4.527 0-8.708-0.717-12.084-1.927v-0.535c0-1.49 1.123-3.18 2.496-3.755 0 0 2.825-1.184 9.588-1.184 6.764 0 9.587 1.184 9.587 1.184 1.373 0.575 2.497 2.265 2.497 3.755v0.535c-3.377 1.21-7.557 1.927-12.084 1.927" fill="#a7a9ac"/></g><g id="g124178" transform="translate(336.16 124.2)"><path id="path124180" d="m0 0c0-31.336-31.228-42.141-63.582-42.141s-63.582 10.805-63.582 42.141 31.228 42.141 63.582 42.141c32.35 0 63.578-10.805 63.578-42.141" fill="#d1d3d4"/></g><g id="g124182" transform="translate(242.52 157)"><path id="path124184" d="m0 0c0-21.176-13.435-35.411-33.439-35.451 0.123-2.091 0.396-4.082 0.8-5.982 22.795 0.429 38.639 17.338 38.639 41.433 0 2.388-0.068 4.729-0.198 7.021-2.023-0.421-4.003-0.908-5.935-1.456 0.084-1.824 0.133-3.676 0.133-5.565" fill="#bcbec0"/></g><g id="g124186" transform="translate(240.48 109.34)"><path id="path124188" d="m0 0h-14.149c-1.489 0-2.707-1.219-2.707-2.708l-2.303-72.55c0-1.489 1.124-3.179 2.497-3.755 0 0 2.825-1.183 9.587-1.183 6.764 0 9.588 1.183 9.588 1.183 1.373 0.576 2.498 2.266 2.498 3.755l-2.303 72.55c0 1.489-1.219 2.708-2.708 2.708" fill="#d1d3d4"/></g><g id="g124190" transform="translate(233.4 36.546)"><path id="path124192" d="m0 0c-4.527 0-8.707-0.716-12.084-1.927v-0.535c0-1.489 1.124-3.179 2.497-3.755 0 0 2.824-1.184 9.587-1.184 6.764 0 9.588 1.184 9.588 1.184 1.373 0.576 2.497 2.266 2.497 3.755v0.535c-3.377 1.211-7.557 1.927-12.085 1.927" fill="#bcbec0"/></g><g id="g124194" transform="translate(303.58 109.34)"><path id="path124196" d="m0 0h-14.149c-1.489 0-2.708-1.219-2.708-2.708l-2.302-72.55c0-1.489 1.124-3.179 2.497-3.755 0 0 2.824-1.183 9.587-1.183 6.764 0 9.588 1.183 9.588 1.183 1.373 0.576 2.497 2.266 2.497 3.755l-2.302 72.55c0 1.489-1.219 2.708-2.708 2.708" fill="#d1d3d4"/></g><g id="g124198" transform="translate(296.5 36.546)"><path id="path124200" d="m0 0c-4.527 0-8.707-0.716-12.084-1.927v-0.535c0-1.489 1.124-3.179 2.497-3.755 0 0 2.824-1.184 9.587-1.184 6.764 0 9.587 1.184 9.587 1.184 1.374 0.576 2.498 2.266 2.498 3.755v0.535c-3.377 1.211-7.558 1.927-12.085 1.927" fill="#bcbec0"/></g><g id="g124202" transform="translate(254.9 233.55)"><path id="path124204" d="m0 0c7.464 12.926 7.455 27.868 2.917 30.533-4.537 2.666-16.894-4.877-24.358-17.804-10.034-17.375-19.737-43.838-13.226-47.841 6.51-4.004 24.635 17.735 34.667 35.112" fill="#d1d3d4"/></g><g id="g124206" transform="translate(247.89 237.89)"><path id="path124208" d="m0 0c4.664 8.076 5.945 14.357 4.336 15.966s-7.095-3.832-11.757-11.909c-8.612-14.914-16.744-29.703-15.565-35.415 5.536 1.836 14.376 16.441 22.986 31.358" fill="#e7e8e9"/></g><g id="g124210" transform="translate(163.12 233.55)"><path id="path124212" d="m0 0c-7.464 12.926-7.455 27.868-2.917 30.533 4.537 2.666 16.894-4.877 24.358-17.804 10.034-17.375 19.737-43.838 13.226-47.841-6.51-4.004-24.635 17.735-34.667 35.112" fill="#d1d3d4"/></g><g id="g124214" transform="translate(193.12 206.53)"><path id="path124216" d="m0 0c1.179 5.713-6.953 20.501-15.565 35.416-4.662 8.077-10.148 13.517-11.757 11.908s-0.327-7.89 4.336-15.966c8.611-14.917 17.45-29.522 22.986-31.358" fill="#e7e8e9"/></g><g id="g124218" transform="translate(172.47 157)"><path id="path124220" d="m0 0c0-22.676 14.694-38.453 36.522-38.453s36.523 15.777 36.523 38.453c0 34.955-14.695 60.628-36.523 60.628-21.829 0-36.522-25.673-36.522-60.628" fill="#d1d3d4"/></g><g id="g124222" transform="translate(243.32 142.71)"><path id="path124224" d="m0 0c-9.792 3.163-21.605 5.011-34.326 5.011-12.72 0-24.534-1.848-34.326-5.011 4.86-14.743 17.46-24.168 34.325-24.168 16.867 0 29.467 9.425 34.327 24.168" fill="#e7e8e9"/></g><g id="g124226" transform="translate(225.19 167.72)"><path id="path124228" d="m0 0c0-3.037 2.462-5.5 5.5-5.5 3.037 0 5.5 2.463 5.5 5.5 0 3.038-2.463 5.5-5.5 5.5-3.038 0-5.5-2.462-5.5-5.5" fill="#231f20"/></g><g id="g124230" transform="translate(181.8 167.72)"><path id="path124232" d="m0 0c0-3.037 2.463-5.5 5.5-5.5s5.5 2.463 5.5 5.5c0 3.038-2.463 5.5-5.5 5.5s-5.5-2.462-5.5-5.5" fill="#231f20"/></g><g id="g124234" transform="translate(200.3 140.85)"><path id="path124236" d="m0 0c0-1.51-1.225-2.735-2.735-2.735s-2.735 1.225-2.735 2.735 1.225 2.735 2.735 2.735 2.735-1.225 2.735-2.735" fill="#a7a9ac"/></g><g id="g124238" transform="translate(217.52 140.85)"><path id="path124240" d="m0 0c0-1.51 1.225-2.735 2.735-2.735s2.735 1.225 2.735 2.735-1.225 2.735-2.735 2.735-2.735-1.225-2.735-2.735" fill="#a7a9ac"/></g><g id="g124242" transform="translate(217.91 212.25)"><path id="path124244" d="m0 0h-17.829l-1.048 12.806s3.012 2.011 9.962 2.011c6.951 0 9.962-2.011 9.962-2.011l-1.047-12.806z" fill="#58595b"/></g></g><path id="path187598" marker-end="url(#marker187612)" d="m1233.5 393.93c-121.78 77.492-216.67 7.682-216.67 7.682" stroke="#000" stroke-miterlimit="0" stroke-width="8.8664" fill="none"/><g><text id="text187600" style="word-spacing:0px;letter-spacing:0px" xml:space="preserve" transform="scale(1,-1)" font-size="40px" y="-463.86652" x="1084.3192" font-family="sans-serif" line-height="125%" fill="#000000"><tspan id="tspan187602" y="-463.86652" x="1084.3192">Tag</tspan><tspan id="tspan187604" y="-413.86652" x="1084.3192"/></text>
<path id="path187606" style="color-rendering:auto;text-decoration-color:#000000;color:#000000;isolation:auto;mix-blend-mode:normal;shape-rendering:auto;solid-color:#000000;block-progression:tb;text-decoration-line:none;text-decoration-style:solid;image-rendering:auto;white-space:normal;text-indent:0;text-transform:none" d="m1206.8 362.65 0.2375-15.228h-213.67v-8h213.79l0.2157-13.925 15.944 9.5375 15.945 9.5375-16.233 9.0391-16.233 9.0391z" fill-rule="evenodd"/><g id="g187608" transform="matrix(1.9312 0 0 -1.9312 1007.3 1279.4)"><path id="path187610" d="m57.227 537.63h-1.9531l-0.01953-5.8789q-2.0508-0.0391-4.1016-0.46875-2.0508-0.44922-4.1211-1.3281v-3.5156q1.9922 1.25 4.0234 1.8945 2.0508 0.625 4.2188 0.64453v-8.9062q-4.3164-0.70312-6.2891-2.3828-1.9531-1.6797-1.9531-4.6094 0-3.1836 2.1289-5.0195t6.1133-2.1094v-4.5898h1.9531v4.5312q1.8164 0.0781 3.5156 0.39063 1.6992 0.29297 3.3203 0.82031v3.418q-1.6211-0.82031-3.3398-1.2695-1.6992-0.44922-3.4961-0.52734v8.3398q4.4336 0.68359 6.5234 2.4414t2.0898 4.8047q0 3.3008-2.2266 5.2148-2.207 1.8945-6.3867 2.1875v5.918zm-1.9531-20.918v-8.0078q-2.2656 0.25391-3.457 1.2891t-1.1914 2.7539q0 1.6797 1.0938 2.6172 1.1133 0.9375 3.5547 1.3477zm1.9531 3.75v8.457q2.4805-0.33203 3.7305-1.4062 1.2695-1.0742 1.2695-2.832 0-1.7188-1.2109-2.7344-1.1914-1.0156-3.7891-1.4844z"/></g></g></g><g id="g188487"><g id="g187371" transform="translate(1106.8 72.851)"><g id="g124246" transform="translate(368.5 567.2)"><path id="path124248" d="m0 0h4.682c0 37.534-15.54 64.348-47.51 81.974l-2.26-4.1c30.761-16.96 45.088-41.705 45.088-77.874" fill="#414142"/></g><g id="g124250" transform="translate(370.65 570.84)"><path id="path124252" d="m0 0c3.644-2.191 7.556-7.825 5.521-14.398-1.877 0.939-2.66 3.756-3.129 4.069-1.208-7.199-6.104-9.703-6.104-9.703-3.443 7.669-2.592 13.615 3.712 20.032" fill="#231f20"/></g><g id="g124254" transform="translate(333.41 596.86)"><path id="path124256" d="m0 0h-16.563c-1.744 0-3.169-1.426-3.169-3.17l-2.695-73.217c0-1.744 1.316-3.722 2.924-4.395 0 0 3.305-1.386 11.221-1.386 7.917 0 11.223 1.386 11.223 1.386 1.607 0.673 2.923 2.651 2.923 4.395l-2.695 73.217c0 1.744-1.427 3.17-3.169 3.17" fill="#414142"/></g><g id="g124258" transform="translate(325.12 523.35)"><path id="path124260" d="m0 0c-5.299 0-10.191-0.839-14.145-2.256v-0.626c0-1.744 1.316-3.722 2.924-4.395 0 0 3.305-1.386 11.221-1.386 7.917 0 11.224 1.386 11.224 1.386 1.607 0.673 2.922 2.651 2.922 4.395v0.626c-3.952 1.417-8.846 2.256-14.146 2.256" fill="#231f20"/></g><g id="g124262" transform="translate(259.43 596.86)"><path id="path124264" d="m0 0h-16.562c-1.743 0-3.169-1.426-3.169-3.17l-2.695-73.217c0-1.744 1.316-3.722 2.923-4.395 0 0 3.306-1.386 11.222-1.386 7.918 0 11.223 1.386 11.223 1.386 1.607 0.673 2.923 2.651 2.923 4.395l-2.696 73.217c0 1.744-1.426 3.17-3.169 3.17" fill="#414142"/></g><g id="g124266" transform="translate(251.15 523.35)"><path id="path124268" d="m0 0c-5.299 0-10.192-0.839-14.145-2.256v-0.626c0-1.744 1.315-3.722 2.922-4.395 0 0 3.306-1.386 11.223-1.386s11.223 1.386 11.223 1.386c1.607 0.673 2.923 2.651 2.923 4.395v0.626c-3.954 1.417-8.846 2.256-14.146 2.256" fill="#231f20"/></g><g id="g124270" transform="translate(349.61 610.26)"><path id="path124272" d="m0 0c0-36.68-36.553-49.328-74.425-49.328s-74.426 12.648-74.426 49.328c0 36.681 36.554 49.328 74.426 49.328 37.871 0 74.424-12.647 74.424-49.328" fill="#58595b"/></g><g id="g124274" transform="translate(237.61 592.87)"><path id="path124276" d="m0 0h-16.561c-1.744 0-3.17-1.427-3.17-3.169l-2.694-73.219c0-1.742 1.315-3.72 2.922-4.395 0 0 3.306-1.385 11.222-1.385 7.917 0 11.223 1.385 11.223 1.385 1.608 0.675 2.924 2.653 2.924 4.395l-2.695 73.219c0 1.742-1.428 3.169-3.171 3.169" fill="#58595b"/></g><g id="g124278" transform="translate(229.33 519.37)"><path id="path124280" d="m0 0c-5.298 0-10.191-0.839-14.144-2.255v-0.628c0-1.742 1.315-3.721 2.922-4.395 0 0 3.306-1.385 11.222-1.385 7.917 0 11.223 1.385 11.223 1.385 1.608 0.674 2.924 2.653 2.924 4.395v0.627c-3.954 1.417-8.846 2.256-14.147 2.256" fill="#414142"/></g><g id="g124282" transform="translate(311.48 592.87)"><path id="path124284" d="m0 0h-16.562c-1.743 0-3.169-1.427-3.169-3.169l-2.695-73.219c0-1.742 1.316-3.72 2.923-4.395 0 0 3.305-1.385 11.222-1.385s11.222 1.385 11.222 1.385c1.609 0.675 2.924 2.653 2.924 4.395l-2.695 73.219c0 1.742-1.427 3.169-3.17 3.169" fill="#58595b"/></g><g id="g124286" transform="translate(303.2 519.37)"><path id="path124288" d="m0 0c-5.299 0-10.191-0.839-14.145-2.255v-0.628c0-1.742 1.316-3.721 2.923-4.395 0 0 3.305-1.385 11.222-1.385s11.223 1.385 11.223 1.385c1.608 0.674 2.923 2.653 2.923 4.395v0.627c-3.953 1.417-8.846 2.256-14.146 2.256" fill="#414142"/></g><g id="g124290" transform="translate(249.68 703.48)"><path id="path124292" d="m0 0c7.231-4.174 9.653-10.989 6.759-16-2.892-5.012-10.005-6.321-17.237-2.146-9.72 5.61-20.855 17.457-17.962 22.468 2.893 5.01 18.72 1.291 28.44-4.322" fill="#58595b"/></g><g id="g124294" transform="translate(225.76 705.19)"><path id="path124296" d="m0 0c1.027-3.098 7.519-10.839 15.863-15.655 4.516-2.609 8.98-2.454 10.609 0.371 1.631 2.823-0.465 6.765-4.983 9.373-8.343 4.819-18.294 6.569-21.489 5.911" fill="#414142"/></g><g id="g124298" transform="translate(200.86 607.16)"><path id="path124300" d="m0 0c23.416 0.047 39.143 16.71 39.143 41.498 0 2.21-0.059 4.378-0.158 6.513 2.263 0.641 4.58 1.211 6.95 1.705 0.151-2.683 0.23-5.423 0.23-8.218 0-28.205-18.546-47.998-45.227-48.499-0.475 2.223-0.794 4.554-0.938 7.001" fill="#4c4d4f"/></g><g id="g124302" transform="translate(151.85 703.48)"><path id="path124304" d="m0 0c-7.231-4.174-9.652-10.989-6.758-16 2.891-5.012 10.005-6.321 17.236-2.146 9.72 5.61 20.855 17.457 17.962 22.468-2.893 5.01-18.72 1.291-28.44-4.322" fill="#58595b"/></g><g id="g124306" transform="translate(154.27 699.28)"><path id="path124308" d="m0 0c-4.518-2.608-6.614-6.55-4.983-9.374 1.629-2.824 6.092-2.98 10.609-0.371 8.344 4.816 14.836 12.558 15.863 15.656-3.196 0.658-13.146-1.093-21.489-5.911" fill="#414142"/></g><g id="g124310" transform="translate(158.01 648.65)"><path id="path124312" d="m0 0c0-26.543 17.201-45.011 42.75-45.011 25.551 0 42.752 18.468 42.752 45.011 0 40.916-17.201 70.968-42.752 70.968s-42.75-30.052-42.75-70.968" fill="#58595b"/></g><g id="g124314" transform="translate(219.72 661.2)"><path id="path124316" d="m0 0c0-3.555 2.882-6.438 6.438-6.438 3.555 0 6.437 2.883 6.437 6.438 0 3.556-2.882 6.438-6.437 6.438-3.556 0-6.438-2.882-6.438-6.438" fill="#231f20"/></g><g id="g124318" transform="translate(168.93 661.2)"><path id="path124320" d="m0 0c0-3.555 2.883-6.438 6.438-6.438s6.438 2.883 6.438 6.438c0 3.556-2.883 6.438-6.438 6.438s-6.438-2.882-6.438-6.438" fill="#231f20"/></g><g id="g124322" transform="translate(234.91 620.06)"><path id="path124324" d="m0 0c-7.485-10.277-19.427-16.418-34.15-16.418-15.291 0-27.586 6.619-34.998 17.62 4.652 14.563 18.29 25.11 34.396 25.11 16.544 0 30.481-11.132 34.752-26.312" fill="#414142"/></g><g id="g124326" transform="translate(190.59 629.75)"><path id="path124328" d="m0 0c0-1.768-1.434-3.201-3.201-3.201-1.768 0-3.201 1.433-3.201 3.201s1.433 3.201 3.201 3.201c1.767 0 3.201-1.433 3.201-3.201" fill="#231f20"/></g><g id="g124330" transform="translate(210.74 629.75)"><path id="path124332" d="m0 0c0-1.768 1.434-3.201 3.202-3.201 1.767 0 3.2 1.433 3.2 3.201s-1.433 3.201-3.2 3.201c-1.768 0-3.202-1.433-3.202-3.201" fill="#231f20"/></g><g id="g124334" transform="translate(210.42 716.38)"><path id="path124336" d="m0 0c16.556 2.515 40.852 14.314 42.244 32.426 0.226 2.952 2.573 2.636 2.573-0.446 0-17.666-6.353-36.115-24.716-42.456-12.586-4.346-20.101 5.082-20.101 10.476" fill="#ffe6b9"/></g><g id="g124338" transform="translate(191.1 716.38)"><path id="path124340" d="m0 0c-16.556 2.515-40.852 14.314-42.244 32.426-0.226 2.952-2.574 2.636-2.574-0.446 0-17.666 6.354-36.115 24.717-42.456 12.586-4.346 20.101 5.082 20.101 10.476" fill="#ffe6b9"/></g></g><path id="path187885" marker-end="url(#marker187899)" d="m1233.5 698.82c-121.78 77.492-216.67 7.682-216.67 7.682" stroke="#000" stroke-miterlimit="0" stroke-width="8.8664" fill="none"/><g><text id="text187887" style="word-spacing:0px;letter-spacing:0px" transform="scale(1,-1)" line-height="125%" xml:space="preserve" font-size="40px" y="-768.75641" x="1084.3192" font-family="sans-serif" fill="#000000"><tspan id="tspan187889" y="-768.75641" x="1084.3192">Tag</tspan><tspan id="tspan187891" y="-718.75641" x="1084.3192"/></text>
<path id="path187893" style="color-rendering:auto;text-decoration-color:#000000;color:#000000;isolation:auto;mix-blend-mode:normal;shape-rendering:auto;solid-color:#000000;block-progression:tb;text-decoration-line:none;text-decoration-style:solid;image-rendering:auto;white-space:normal;text-indent:0;text-transform:none" d="m1206.8 667.54 0.2375-15.228h-213.67v-8h213.79l0.2157-13.925 15.944 9.5375 15.945 9.5375-16.233 9.0391-16.233 9.0391z" fill-rule="evenodd"/><g id="g187895" transform="matrix(1.9312 0 0 -1.9312 1007.3 1584.3)"><path id="path187897" d="m57.227 537.63h-1.9531l-0.01953-5.8789q-2.0508-0.0391-4.1016-0.46875-2.0508-0.44922-4.1211-1.3281v-3.5156q1.9922 1.25 4.0234 1.8945 2.0508 0.625 4.2188 0.64453v-8.9062q-4.3164-0.70312-6.2891-2.3828-1.9531-1.6797-1.9531-4.6094 0-3.1836 2.1289-5.0195t6.1133-2.1094v-4.5898h1.9531v4.5312q1.8164 0.0781 3.5156 0.39063 1.6992 0.29297 3.3203 0.82031v3.418q-1.6211-0.82031-3.3398-1.2695-1.6992-0.44922-3.4961-0.52734v8.3398q4.4336 0.68359 6.5234 2.4414t2.0898 4.8047q0 3.3008-2.2266 5.2148-2.207 1.8945-6.3867 2.1875v5.918zm-1.9531-20.918v-8.0078q-2.2656 0.25391-3.457 1.2891t-1.1914 2.7539q0 1.6797 1.0938 2.6172 1.1133 0.9375 3.5547 1.3477zm1.9531 3.75v8.457q2.4805-0.33203 3.7305-1.4062 1.2695-1.0742 1.2695-2.832 0-1.7188-1.2109-2.7344-1.1914-1.0156-3.7891-1.4844z"/></g></g></g></g><path id="path188355" d="m542.28 746.63a98.255 148.06 0 0 1 -95.59 -114.46 98.255 148.06 0 0 1 -48.72 19.61 98.255 148.06 0 0 1 -98.26 -148.05 98.255 148.06 0 0 1 2.02 -29.13 108.23 163.09 0 0 1 -40.4 -127.03 108.23 163.09 0 0 1 67.57 -151.03 115.91 174.66 0 0 1 115.89 -174 115.91 174.66 0 0 1 60.99 26.277 113.61 171.19 0 0 1 76.41 -44.782 113.61 171.19 0 0 1 84.18 56.52 109 164.25 0 0 1 21.752 -3.3122 109 164.25 0 0 1 109 164.25 109 164.25 0 0 1 -0.80168 18.193 67.55 101.79 0 0 1 54.536 99.789 67.55 101.79 0 0 1 -36.801 90.518 99.79 150.37 0 0 1 7.6305 57.539 99.79 150.37 0 0 1 -99.79 150.37 99.79 150.37 0 0 1 -20.825 -3.4945 87.508 131.86 0 0 1 -77.429 70.584 87.508 131.86 0 0 1 -12.191 -1.4299 98.255 148.06 0 0 1 -69.176 43.069z" stroke="#000" stroke-miterlimit="0" stroke-width="10.153" fill="none"/></g></svg>
